<?xml version="1.0" standalone="no"?>
<!DOCTYPE svg PUBLIC "-//W3C//DTD SVG 20010904//EN"
 "http://www.w3.org/TR/2001/REC-SVG-20010904/DTD/svg10.dtd">
<svg version="1.0" xmlns="http://www.w3.org/2000/svg"
 width="554.000000pt" height="554.000000pt" viewBox="0 0 554.000000 554.000000"
 preserveAspectRatio="xMidYMid meet">
<metadata>
Created by potrace 1.14, written by Peter Selinger 2001-2017
</metadata>
<g transform="translate(0.000000,554.000000) scale(0.100000,-0.100000)"
fill="#000000" stroke="none">
<path d="M1317 4743 l-797 -798 2 -1590 c4 -1794 -4 -1625 84 -1814 57 -121
115 -201 210 -290 121 -113 263 -188 430 -228 75 -17 153 -18 1524 -18 1371 0
1449 1 1524 18 374 88 655 387 716 762 8 51 10 599 8 2025 l-3 1955 -23 80
c-79 281 -287 518 -549 625 -167 67 -97 64 -1268 67 l-1060 3 -798 -797z
m2965 421 c152 -55 268 -157 338 -299 63 -126 60 -17 60 -2105 0 -1893 0
-1906 -21 -1980 -63 -229 -244 -391 -480 -429 -42 -7 -528 -11 -1417 -11
-1453 0 -1429 -1 -1547 50 -70 30 -158 94 -209 152 -54 61 -119 189 -135 266
-8 37 -11 501 -11 1522 l0 1470 458 0 c264 0 484 4 522 10 187 30 347 174 395
355 12 49 15 140 15 540 0 265 3 485 7 489 4 4 441 5 972 4 l966 -3 87 -31z"/>
<path d="M3548 2806 c-216 -63 -288 -207 -275 -556 8 -217 48 -319 151 -389
75 -51 131 -66 241 -65 132 0 197 25 276 103 78 78 100 139 107 297 l5 121
-28 21 c-25 20 -39 22 -161 22 -125 0 -134 -1 -160 -24 -21 -18 -28 -32 -28
-60 0 -55 29 -79 105 -84 l61 -5 -4 -54 c-8 -91 -63 -144 -155 -151 -77 -5
-138 26 -167 83 -19 36 -21 58 -21 240 0 189 1 202 23 242 27 52 82 83 146 83
62 0 94 -14 146 -65 51 -50 84 -65 123 -58 34 7 77 57 77 90 0 68 -82 157
-179 194 -71 27 -215 35 -283 15z"/>
<path d="M2344 2776 l-34 -34 0 -446 0 -447 25 -24 c33 -34 93 -34 132 -1 l28
24 5 303 5 303 163 -290 c90 -159 171 -298 180 -309 43 -52 109 -70 165 -44
57 26 57 28 57 508 l0 442 -25 24 c-33 34 -93 34 -132 1 l-28 -24 -5 -304 -5
-303 -69 125 c-261 470 -275 492 -321 514 -56 27 -102 21 -141 -18z"/>
<path d="M1414 2775 l-25 -25 3 -451 3 -451 30 -24 c52 -41 138 -25 163 31 7
16 12 79 12 165 l0 140 98 0 c180 0 268 26 345 99 78 73 107 178 82 296 -17
80 -51 134 -113 181 -71 55 -123 64 -361 64 l-212 0 -25 -25z m449 -179 c36
-25 57 -66 57 -113 0 -50 -18 -82 -59 -110 -30 -21 -46 -23 -147 -23 l-114 0
0 136 0 136 118 -4 c93 -3 123 -7 145 -22z"/>
<path d="M1602 1255 c-11 -24 -14 -25 -112 -25 l-100 0 0 -117 c0 -64 -7 -161
-16 -214 -16 -95 -16 -98 4 -123 15 -20 22 -23 30 -13 23 28 42 124 42 213 l0
92 25 -2 c19 -1 25 -6 23 -21 -2 -16 4 -21 30 -23 29 -3 32 -1 32 22 0 26 14
33 39 17 11 -7 10 -13 -4 -34 -14 -21 -26 -27 -68 -29 l-51 -3 3 -67 c2 -54
-2 -75 -23 -117 -14 -28 -26 -53 -26 -56 0 -4 14 -5 32 -3 26 2 33 9 43 38 9
28 18 36 41 38 26 3 27 2 12 -10 -12 -9 -15 -22 -11 -41 5 -23 10 -28 32 -25
27 3 28 5 17 51 -5 23 -3 27 14 27 13 0 20 -7 20 -19 0 -35 12 -51 36 -51 27
0 29 7 14 44 -8 22 -7 26 9 26 15 0 21 -10 26 -40 l7 -40 56 0 c32 0 63 4 71
9 14 9 32 86 23 96 -3 3 -77 5 -165 5 -88 0 -158 2 -156 5 3 2 80 5 173 5 120
1 166 5 163 13 -2 8 -52 10 -170 8 -116 -2 -167 1 -167 8 0 7 47 11 146 11
l145 0 -3 46 -3 46 -85 3 c-47 1 -87 4 -90 6 -3 2 44 5 104 8 75 4 111 10 114
19 2 8 -8 12 -32 12 -20 0 -36 5 -36 10 0 6 14 10 32 10 36 0 28 16 -12 23
-21 4 -20 4 8 6 40 1 43 21 2 21 -16 0 -30 5 -30 10 0 6 14 10 30 10 17 0 30
5 30 10 0 6 -9 10 -19 10 -31 0 -34 18 -4 22 20 2 29 9 31 26 4 25 10 23 -115
23 -77 0 -82 2 -85 22 -2 16 -11 23 -34 25 -24 2 -33 -2 -42 -23z m-3 -101
c-23 -24 -39 -31 -39 -16 0 15 41 52 51 46 6 -4 1 -16 -12 -30z m145 15 c-7
-12 -41 -12 -49 0 -6 11 23 20 42 13 7 -2 10 -8 7 -13z m-234 6 c0 -9 -40 -45
-50 -45 -5 0 -10 11 -10 25 0 21 5 25 30 25 17 0 30 -2 30 -5z m230 -45 c0 -5
-13 -10 -30 -10 -16 0 -30 5 -30 10 0 6 14 10 30 10 17 0 30 -4 30 -10z m-12
-37 c-10 -2 -26 -2 -35 0 -10 3 -2 5 17 5 19 0 27 -2 18 -5z m12 -33 c0 -5
-16 -10 -36 -10 -21 0 -33 4 -29 10 3 6 19 10 36 10 16 0 29 -4 29 -10z m26
-89 c-6 -10 -201 -9 -211 1 -4 3 44 7 105 7 66 1 109 -2 106 -8z m-48 -38
c-32 -2 -84 -2 -115 0 -32 2 -6 3 57 3 63 0 89 -1 58 -3z m90 -115 c-3 -7 -13
-13 -23 -13 -10 0 -20 6 -22 13 -3 7 5 12 22 12 17 0 25 -5 23 -12z"/>
<path d="M2780 1230 c0 -39 -18 -43 -160 -38 l-111 3 3 -30 3 -30 115 0 c142
-1 153 -2 148 -17 -3 -7 -27 -12 -62 -12 -52 -1 -60 -4 -87 -34 -33 -37 -39
-93 -13 -130 31 -44 101 -65 144 -42 30 16 32 -5 2 -33 -17 -16 -44 -28 -75
-32 -48 -7 -49 -8 -43 -38 3 -17 7 -32 9 -33 6 -6 102 23 135 40 49 25 77 92
67 160 -4 28 -8 78 -9 111 l-1 60 55 -3 c79 -3 98 3 98 33 0 29 -16 36 -83 31
-64 -5 -75 0 -75 35 0 26 -4 29 -30 29 -27 0 -30 -3 -30 -30z m-19 -190 c12
-7 19 -21 19 -40 0 -46 -61 -68 -94 -34 -47 47 13 107 75 74z"/>
<path d="M3759 1205 l-12 -54 -51 -3 c-46 -3 -51 -5 -51 -28 0 -22 5 -25 43
-28 l43 -3 -7 -36 c-4 -20 -24 -86 -45 -147 -21 -61 -35 -114 -31 -118 4 -4
18 -9 32 -10 27 -3 39 22 94 202 l32 105 37 3 c63 5 70 -8 65 -120 -5 -120
-16 -138 -75 -120 -42 13 -51 8 -55 -28 -3 -23 2 -26 54 -38 98 -24 132 8 151
143 11 80 3 173 -17 200 -9 13 -33 20 -82 24 -54 5 -68 9 -65 21 2 8 6 32 8
53 5 36 5 37 -25 37 -29 0 -31 -3 -43 -55z"/>
<path d="M3122 1206 c-4 -6 -7 -20 -7 -31 0 -18 8 -20 78 -23 l77 -3 0 -34 c0
-51 -9 -64 -48 -71 -57 -10 -121 -51 -139 -89 -22 -45 -6 -98 41 -144 27 -26
44 -34 74 -35 63 -1 80 21 112 144 l17 65 38 -2 c51 -4 58 -13 50 -62 -5 -29
-17 -50 -46 -76 -45 -40 -46 -45 -20 -69 14 -13 24 -15 38 -8 38 21 76 73 88
119 13 48 17 51 61 38 15 -5 23 0 32 19 12 28 9 33 -46 60 l-33 17 2 72 2 72
-31 3 -32 3 0 -61 c0 -68 -6 -73 -60 -62 -34 8 -35 9 -30 47 2 22 4 58 4 80
l1 40 -107 1 c-69 1 -111 -3 -116 -10z m128 -240 c0 -20 -28 -97 -42 -113 -9
-11 -15 -10 -35 8 -31 30 -30 72 3 98 30 24 74 28 74 7z"/>
<path d="M2116 1203 c-68 -18 -138 -89 -161 -161 -38 -116 23 -252 113 -252
71 0 121 88 151 265 7 39 14 75 16 82 7 21 62 -6 95 -45 26 -32 30 -45 30 -97
0 -76 -24 -119 -81 -141 -36 -15 -40 -19 -34 -43 9 -34 9 -34 50 -27 23 5 51
22 75 46 96 96 81 269 -28 345 -39 27 -52 30 -125 32 -45 1 -91 -1 -101 -4z
m39 -105 c-21 -134 -57 -230 -88 -236 -27 -5 -50 44 -50 107 0 71 28 122 81
151 57 30 65 27 57 -22z"/>
<path d="M4035 1182 c-35 -7 -36 -17 -11 -84 14 -35 32 -94 41 -129 9 -35 20
-67 23 -71 4 -3 20 -4 35 -1 27 5 28 8 22 42 -9 52 -65 218 -79 234 -6 7 -20
12 -31 9z"/>
</g>
</svg>
